# xmcd
#
# Track frame offsets:
# 150
# 11832
# 22962
# 37937
# 51287
# 76440
# 92107
# 102397
# 114877
# 129517
# 146920
# 163407
#
# Disc length: 2333 seconds
#
# Revision: 0
# Processed by: cddbd v1.5.1PL2 Copyright (c) Steve Scherf et al.
# Submitted via: Audion 3.0.2 (http://www.panic.com/audion/)
#
DISCID=9d091b0c
DTITLE=Ephemera - Glue
DYEAR=1900
DGENRE=
TTITLE0=Temporaily happy
TTITLE1=glue
TTITLE2=if
TTITLE3=hypothetaically if
TTITLE4=everytime
TTITLE5=tale
TTITLE6=out of time
TTITLE7=dew
TTITLE8=merry-go-round
TTITLE9=back in time
TTITLE10=under my elderdom
TTITLE11=did I fullfill your wishes
EXTD=
EXTT0=
EXTT1=
EXTT2=
EXTT3=
EXTT4=
EXTT5=
EXTT6=
EXTT7=
EXTT8=
EXTT9=
EXTT10=
EXTT11=
PLAYORDER=
